<?xml version="1.0" encoding="UTF-8" standalone="no"?>
<svg width="320px" height="320px" viewBox="0 0 320 320" version="1.1" xmlns="http://www.w3.org/2000/svg" xmlns:xlink="http://www.w3.org/1999/xlink">
    <!-- Generator: Sketch 42 (36781) - http://www.bohemiancoding.com/sketch -->
    <title>A4</title>
    <desc>Created with Sketch.</desc>
    <defs></defs>
    <g id="Page-1" stroke="none" stroke-width="1" fill="none" fill-rule="evenodd">
        <g id="A4" fill="#000000">
            <g id="clonepool" transform="translate(7.000000, 0.000000)">
                <g id="Group">
                    <g id="Slash" transform="translate(127.916667, 215.272727)">
                        <polygon id="Combined-Shape" points="34.7560976 105 20.8536585 105 81.097561 -1.65793305e-14 95 -1.65793305e-14"></polygon>
                    </g>
                    <g id="Slash" transform="translate(169.780303, 215.272727)">
                        <polygon id="Combined-Shape" points="34.7560976 105 20.8536585 105 81.097561 -1.65793305e-14 95 -1.65793305e-14"></polygon>
                    </g>
                    <g id="Slash" transform="translate(211.643939, 215.272727)">
                        <polygon id="Combined-Shape" points="34.7560976 105 20.8536585 105 81.097561 -1.65793305e-14 95 -1.65793305e-14"></polygon>
                    </g>
                    <path d="M148.848485,215.272727 L181.409091,215.272727 L120.939394,320 L120.939394,175.709091 C120.939394,158.999967 107.402791,145.454545 90.7045455,145.454545 C79.6304032,145.454545 69.2793547,142.356596 60.469697,136.979526 L60.469697,215.272727 L32.5606061,215.272727 L32.5606061,90.9600476 C13.6889116,85.0289295 0,67.3868418 0,46.5454545 C0,20.8391098 20.8255427,0 46.5151515,0 C72.2047603,0 93.030303,20.8391098 93.030303,46.5454545 C93.030303,67.3079333 79.4448515,84.8952928 60.6838263,90.8921762 C62.4712612,105.894933 75.2303485,117.527273 90.7045455,117.527273 C122.816557,117.527273 148.848485,143.57616 148.848485,175.709091 L148.848485,215.272727 Z M46.5151515,72.1454545 C60.6444364,72.1454545 72.0984848,60.6839441 72.0984848,46.5454545 C72.0984848,32.406965 60.6444364,20.9454545 46.5151515,20.9454545 C32.3858667,20.9454545 20.9318182,32.406965 20.9318182,46.5454545 C20.9318182,60.6839441 32.3858667,72.1454545 46.5151515,72.1454545 Z" id="Combined-Shape"></path>
                </g>
            </g>
        </g>
    </g>
</svg>